<svg width="24" height="24" viewBox="0 0 24 24" fill="none" xmlns="http://www.w3.org/2000/svg">
<g id="vuesax/linear/teacher">
<g id="vuesax/linear/teacher_2">
<g id="teacher">
<path id="Vector" d="M10.0399 4.42403L5.22392 7.56803C3.67992 8.57603 3.67992 10.832 5.22392 11.84L10.0399 14.984C10.9039 15.552 12.3279 15.552 13.1919 14.984L17.9839 11.84C19.5199 10.832 19.5199 8.58403 17.9839 7.57603L13.1919 4.43203C12.3279 3.85603 10.9039 3.85603 10.0399 4.42403Z" stroke="white" stroke-linecap="round" stroke-linejoin="round"/>
<path id="Vector_2" d="M6.50385 12.8638L6.49585 16.6158C6.49585 17.6318 7.27985 18.7198 8.23985 19.0398L10.7918 19.8878C11.2318 20.0318 11.9599 20.0318 12.4079 19.8878L14.9599 19.0398C15.9199 18.7198 16.7038 17.6318 16.7038 16.6158V12.9038" stroke="white" stroke-linecap="round" stroke-linejoin="round"/>
<path id="Vector_3" d="M19.1199 14.4001V9.6001" stroke="white" stroke-linecap="round" stroke-linejoin="round"/>
</g>
</g>
</g>
</svg>
